# 3ds Max Wavefront OBJ Exporter v0.97b - (c)2007 guruware
# File Created: 11.02.2019 09:11:31

mtllib pressurizer.mtl
usemtl Pressurizer_Material

#
# object Box001
#

v  -0.1600 0.0000 0.1600
v  -0.1600 0.0000 0.3200
v  -0.3200 0.0000 0.3200
v  -0.3200 0.0000 0.1600
v  0.0000 0.0000 0.1600
v  0.0000 0.0000 0.3200
v  0.1600 0.0000 0.1600
v  0.1600 0.0000 0.3200
v  0.3200 0.0000 0.1600
v  0.3200 0.0000 0.3200
v  -0.1600 0.0000 -0.0000
v  -0.3200 0.0000 -0.0000
v  0.0000 0.0000 -0.0000
v  0.1600 0.0000 -0.0000
v  0.3200 0.0000 -0.0000
v  -0.1600 0.0000 -0.1600
v  -0.3200 0.0000 -0.1600
v  0.0000 0.0000 -0.1600
v  0.1600 0.0000 -0.1600
v  0.3200 0.0000 -0.1600
v  -0.1600 0.0000 -0.3200
v  -0.3200 0.0000 -0.3200
v  0.0000 0.0000 -0.3200
v  0.1600 0.0000 -0.3200
v  0.3200 0.0000 -0.3200
v  -0.1600 0.1600 0.1600
v  -0.3200 0.1600 0.1600
v  -0.3200 0.1600 0.3200
v  -0.1600 0.1600 0.3200
v  0.0000 0.1600 0.1600
v  0.0000 0.1600 0.3200
v  0.1600 0.1600 0.1600
v  0.1600 0.1600 0.3200
v  0.3200 0.1600 0.1600
v  0.3200 0.1600 0.3200
v  -0.1600 0.1600 -0.0000
v  -0.3200 0.1600 -0.0000
v  0.0000 0.5400 -0.0000
v  -0.1600 0.4900 -0.0000
v  -0.1600 0.4900 0.1600
v  0.0000 0.5400 0.1600
v  0.1600 0.5900 -0.0000
v  0.1600 0.5900 0.1600
v  0.3200 0.6400 -0.0000
v  0.3200 0.6400 0.1600
v  -0.1600 0.1600 -0.1600
v  -0.3200 0.1600 -0.1600
v  0.0000 0.5400 -0.1600
v  -0.1600 0.4900 -0.1600
v  0.1600 0.5900 -0.1600
v  0.3200 0.6400 -0.1600
v  -0.1600 0.1600 -0.3200
v  -0.3200 0.1600 -0.3200
v  0.0000 0.1600 -0.3200
v  0.0000 0.1600 -0.1600
v  0.1600 0.1600 -0.3200
v  0.1600 0.1600 -0.1600
v  0.3200 0.1600 -0.3200
v  0.3200 0.1600 -0.1600
v  0.3200 0.1600 -0.0000
v  0.0000 0.3200 0.1600
v  -0.1600 0.3200 0.1600
v  0.1600 0.3200 0.1600
v  0.3200 0.3200 0.1600
v  -0.1600 0.3200 -0.0000
v  0.3200 0.3200 -0.0000
v  -0.1600 0.3200 -0.1600
v  0.0000 0.3200 -0.1600
v  0.1600 0.3200 -0.1600
v  0.3200 0.3200 -0.1600
v  0.0000 0.4800 0.1600
v  -0.1600 0.4800 0.1600
v  -0.1600 0.4800 -0.0000
v  0.1600 0.4800 0.1600
v  0.3200 0.4800 0.1600
v  0.3200 0.4800 -0.0000
v  -0.1600 0.4800 -0.1600
v  0.0000 0.4800 -0.1600
v  0.1600 0.4800 -0.1600
v  0.3200 0.4800 -0.1600
# 80 vertices

vn 0.0000 -1.0000 -0.0000
vn 0.0000 -0.7071 0.7071
vn -0.5774 -0.5774 0.5774
vn -0.7071 -0.7071 -0.0000
vn 0.7071 -0.7071 -0.0000
vn 0.5774 -0.5774 0.5774
vn 0.0000 -0.7071 -0.7071
vn -0.5774 -0.5774 -0.5774
vn 0.5774 -0.5774 -0.5774
vn -0.3015 0.9045 0.3015
vn -0.7071 0.7071 -0.0000
vn -0.5774 0.5774 0.5774
vn 0.0000 0.7071 0.7071
vn 0.9045 0.3015 0.3015
vn 0.5774 0.5774 0.5774
vn -0.2983 0.9545 -0.0000
vn -0.8057 0.5923 -0.0000
vn -0.6476 0.4761 0.5950
vn -0.2109 0.6749 0.7071
vn 0.5923 0.8057 -0.0000
vn 0.4895 0.6658 0.5631
vn -0.3015 0.9045 -0.3015
vn -0.2109 0.6749 -0.7071
vn -0.6476 0.4761 -0.5950
vn 0.4895 0.6658 -0.5631
vn 0.0000 0.7071 -0.7071
vn -0.5774 0.5774 -0.5774
vn 0.5774 0.5774 -0.5774
vn 0.9045 0.3015 -0.3015
vn 1.0000 0.0000 -0.0000
vn 0.0000 0.0000 1.0000
vn -0.7071 0.0000 0.7071
vn 0.7071 0.0000 0.7071
vn -1.0000 0.0000 -0.0000
vn -0.7071 0.0000 -0.7071
vn 0.0000 0.0000 -1.0000
vn 0.7071 0.0000 -0.7071
# 37 vertex normals

vt 0.1250 0.3750 0.0000
vt 0.1250 0.5000 0.0000
vt 0.0000 0.5000 0.0000
vt 0.0000 0.3750 0.0000
vt 0.2500 0.3750 0.0000
vt 0.2500 0.5000 0.0000
vt 0.3750 0.3750 0.0000
vt 0.3750 0.5000 0.0000
vt 0.5000 0.3750 0.0000
vt 0.5000 0.5000 0.0000
vt 0.1250 0.2500 0.0000
vt 0.0000 0.2500 0.0000
vt 0.2500 0.2500 0.0000
vt 0.3750 0.2500 0.0000
vt 0.5000 0.2500 0.0000
vt 0.1250 0.1250 0.0000
vt 0.0000 0.1250 0.0000
vt 0.2500 0.1250 0.0000
vt 0.3750 0.1250 0.0000
vt 0.5000 0.1250 0.0000
vt 0.1250 0.0000 0.0000
vt 0.0000 0.0000 0.0000
vt 0.2500 0.0000 0.0000
vt 0.3750 0.0000 0.0000
vt 0.5000 0.0000 0.0000
vt 0.1306 0.6216 0.0000
vt 0.0056 0.6216 0.0000
vt 0.0056 0.4966 0.0000
vt 0.1306 0.4966 0.0000
vt 0.2556 0.6216 0.0000
vt 0.2556 0.4966 0.0000
vt 0.3806 0.6216 0.0000
vt 0.3806 0.4966 0.0000
vt 0.5056 0.6216 0.0000
vt 0.5056 0.4966 0.0000
vt 0.1306 0.7466 0.0000
vt 0.0056 0.7466 0.0000
vt 0.3750 0.7500 0.0000
vt 0.5000 0.7500 0.0000
vt 0.5000 0.8750 0.0000
vt 0.3750 0.8750 0.0000
vt 0.2500 0.7500 0.0000
vt 0.2500 0.8750 0.0000
vt 0.1250 0.7500 0.0000
vt 0.1250 0.8750 0.0000
vt 0.1306 0.8716 0.0000
vt 0.0056 0.8716 0.0000
vt 0.3750 0.6250 0.0000
vt 0.5000 0.6250 0.0000
vt 0.2500 0.6250 0.0000
vt 0.1250 0.6250 0.0000
vt 0.1306 0.9966 0.0000
vt 0.0056 0.9966 0.0000
vt 0.2556 0.9966 0.0000
vt 0.2556 0.8716 0.0000
vt 0.3806 0.9966 0.0000
vt 0.3806 0.8716 0.0000
vt 0.5056 0.9966 0.0000
vt 0.5056 0.8716 0.0000
vt 0.8750 0.3750 0.0000
vt 0.8750 0.2500 0.0000
vt 1.0000 0.2500 0.0000
vt 1.0000 0.3750 0.0000
vt 0.8750 0.5000 0.0000
vt 1.0000 0.5000 0.0000
vt 0.8750 0.6250 0.0000
vt 1.0000 0.6250 0.0000
vt 0.8750 0.7500 0.0000
vt 1.0000 0.7500 0.0000
vt 0.8760 0.3750 0.0000
vt 0.8760 0.2500 0.0000
vt 1.0010 0.2500 0.0000
vt 1.0010 0.3750 0.0000
vt 0.8760 0.5000 0.0000
vt 1.0010 0.5000 0.0000
vt 0.8760 0.6250 0.0000
vt 1.0010 0.6250 0.0000
vt 0.8760 0.7500 0.0000
vt 1.0010 0.7500 0.0000
vt 0.7502 0.7499 0.0000
vt 0.8750 0.7499 0.0000
vt 0.7502 0.6250 0.0000
vt 0.6254 0.7499 0.0000
vt 0.6254 0.6250 0.0000
vt 0.5006 0.7499 0.0000
vt 0.5006 0.6250 0.0000
vt 0.7500 0.2500 0.0000
vt 0.6250 0.2500 0.0000
vt 0.6250 0.1250 0.0000
vt 0.7500 0.1250 0.0000
vt 0.7510 0.5000 0.0000
vt 0.7510 0.3750 0.0000
vt 0.8744 0.7501 0.0000
vt 0.7496 0.7501 0.0000
vt 0.7496 0.6252 0.0000
vt 0.8744 0.6252 0.0000
vt 0.6248 0.7501 0.0000
vt 0.6248 0.6252 0.0000
vt 0.7510 0.6250 0.0000
vt 0.5000 0.7501 0.0000
vt 0.5000 0.6252 0.0000
vt 0.7502 0.8749 0.0000
vt 0.8750 0.8749 0.0000
vt 0.7500 0.3750 0.0000
vt 0.6250 0.3750 0.0000
vt 0.6254 0.8749 0.0000
vt 0.5006 0.8749 0.0000
vt 0.6260 0.5000 0.0000
vt 0.6260 0.3750 0.0000
vt 0.8744 0.8751 0.0000
vt 0.7496 0.8751 0.0000
vt 0.6248 0.8751 0.0000
vt 0.6260 0.6250 0.0000
vt 0.5000 0.8751 0.0000
vt 0.7502 0.9217 0.0000
vt 0.8750 0.8827 0.0000
vt 0.4873 -0.5253 0.0000
vt 0.4873 -0.6237 0.0000
vt 0.4935 -1.2998 0.0000
vt 0.4935 -1.2014 0.0000
vt 0.6254 0.9608 0.0000
vt 0.5006 0.9998 0.0000
vt 0.5010 0.5000 0.0000
vt 0.5010 0.3750 0.0000
vt 0.8744 0.8829 0.0000
vt 0.7496 0.9219 0.0000
vt 0.4873 -0.7220 0.0000
vt 0.4935 -1.3981 0.0000
vt 0.6248 0.9610 0.0000
vt 0.5010 0.6250 0.0000
vt 0.5000 1.0000 0.0000
# 131 texture coords

o Box001
g Box001

s 2
f 1/1/1 2/2/2 3/3/3 4/4/4 
f 5/5/1 6/6/2 2/2/2 1/1/1 
f 7/7/1 8/8/2 6/6/2 5/5/1 
f 9/9/5 10/10/6 8/8/2 7/7/1 
f 11/11/1 1/1/1 4/4/4 12/12/4 
f 13/13/1 5/5/1 1/1/1 11/11/1 
f 14/14/1 7/7/1 5/5/1 13/13/1 
f 15/15/5 9/9/5 7/7/1 14/14/1 
f 16/16/1 11/11/1 12/12/4 17/17/4 
f 18/18/1 13/13/1 11/11/1 16/16/1 
f 19/19/1 14/14/1 13/13/1 18/18/1 
f 20/20/5 15/15/5 14/14/1 19/19/1 
f 21/21/7 16/16/1 17/17/4 22/22/8 
f 23/23/7 18/18/1 16/16/1 21/21/7 
f 24/24/7 19/19/1 18/18/1 23/23/7 
f 25/25/9 20/20/5 19/19/1 24/24/7 
s 4
f 26/26/10 27/27/11 28/28/12 29/29/13 
f 30/30/13 26/26/10 29/29/13 31/31/13 
f 32/32/13 30/30/13 31/31/13 33/33/13 
f 34/34/14 32/32/13 33/33/13 35/35/15 
f 36/36/11 37/37/11 27/27/11 26/26/10 
f 38/38/16 39/39/17 40/40/18 41/41/19 
f 42/42/16 38/38/16 41/41/19 43/43/19 
f 44/44/20 42/42/16 43/43/19 45/45/21 
f 46/46/22 47/47/11 37/37/11 36/36/11 
f 48/48/23 49/49/24 39/39/17 38/38/16 
f 50/50/23 48/48/23 38/38/16 42/42/16 
f 51/51/25 50/50/23 42/42/16 44/44/20 
f 52/52/26 53/53/27 47/47/11 46/46/22 
f 54/54/26 52/52/26 46/46/22 55/55/26 
f 56/56/26 54/54/26 55/55/26 57/57/26 
f 58/58/28 56/56/26 57/57/26 59/59/29 
s 8
f 29/60/13 28/61/12 3/62/3 2/63/2 
f 31/64/13 29/60/13 2/63/2 6/65/2 
f 33/66/13 31/64/13 6/65/2 8/67/2 
f 35/68/15 33/66/13 8/67/2 10/69/6 
s 16
f 34/70/14 35/71/15 10/72/6 9/73/5 
f 60/74/30 34/70/14 9/73/5 15/75/5 
f 59/76/29 60/74/30 15/75/5 20/77/5 
f 58/78/28 59/76/29 20/77/5 25/79/9 
s 32
f 56/60/26 58/61/28 25/62/9 24/63/7 
f 54/64/26 56/60/26 24/63/7 23/65/7 
f 52/66/26 54/64/26 23/65/7 21/67/7 
f 53/68/27 52/66/26 21/67/7 22/69/8 
s 64
f 47/60/11 53/61/27 22/62/8 17/63/4 
f 37/64/11 47/60/11 17/63/4 12/65/4 
f 27/66/11 37/64/11 12/65/4 4/67/4 
f 28/68/12 27/66/11 4/67/4 3/69/3 
s off
f 61/80/31 62/81/32 26/66/10 30/82/13 
f 63/83/31 61/80/31 30/82/13 32/84/13 
f 64/85/33 63/83/31 32/84/13 34/86/14 
f 62/87/32 65/88/34 36/89/11 26/90/10 
f 66/91/30 64/92/33 34/70/14 60/74/30 
f 65/88/34 67/15/35 46/20/22 36/89/11 
f 67/93/35 68/94/36 55/95/26 46/96/22 
f 68/94/36 69/97/36 57/98/26 55/95/26 
f 70/99/37 66/91/30 60/74/30 59/76/29 
f 69/97/36 70/100/37 59/101/29 57/98/26 
f 71/102/31 72/103/32 62/81/32 61/80/31 
f 72/104/32 73/105/34 65/88/34 62/87/32 
f 74/106/31 71/102/31 61/80/31 63/83/31 
f 75/107/33 74/106/31 63/83/31 64/85/33 
f 76/108/30 75/109/33 64/92/33 66/91/30 
f 77/110/35 78/111/36 68/94/36 67/93/35 
f 73/105/34 77/9/35 67/15/35 65/88/34 
f 78/111/36 79/112/36 69/97/36 68/94/36 
f 80/113/37 76/108/30 66/91/30 70/99/37 
f 79/112/36 80/114/37 70/100/37 69/97/36 
f 41/115/19 40/116/18 72/103/32 71/102/31 
f 40/117/18 39/118/17 73/119/34 72/120/32 
f 43/121/19 41/115/19 71/102/31 74/106/31 
f 45/122/21 43/121/19 74/106/31 75/107/33 
f 44/123/20 45/124/21 75/109/33 76/108/30 
f 49/125/24 48/126/23 78/111/36 77/110/35 
f 39/118/17 49/127/24 77/128/35 73/119/34 
f 48/126/23 50/129/23 79/112/36 78/111/36 
f 51/130/25 44/123/20 76/108/30 80/113/37 
f 50/129/23 51/131/25 80/114/37 79/112/36 
# 78 polygons
